<?xml version="1.0" encoding="utf-8"?>
<!-- Generator: Adobe Illustrator 21.0.2, SVG Export Plug-In . SVG Version: 6.00 Build 0)  -->
<svg version="1.1" id="圖層_1" xmlns="http://www.w3.org/2000/svg" xmlns:xlink="http://www.w3.org/1999/xlink" x="0px" y="0px"
	 viewBox="0 0 1193 307" style="enable-background:new 0 0 1193 307;" xml:space="preserve">
<style type="text/css">
	.st0{fill:#FFFFFF;stroke:#FFFFFF;stroke-width:2.5;stroke-miterlimit:10;}
</style>
<g>
	<path class="st0" d="M269,221.2c0-1.1,0.6-1.7,1.7-1.7s1.7,0.6,1.7,1.7c0,5.1-0.9,10-2.8,14.8c-1.9,4.7-4.5,8.9-7.8,12.8
		c-3.3,3.8-7.1,7.2-11.3,10c-4.2,2.9-8.7,5.2-13.5,6.9c-4.8,1.8-9.6,3-14.5,3.6c-7.2,0.9-14.2,0.9-21.3,0c-7-0.9-13.9-2.4-20.8-4.4
		c-6.9-2-13.6-4.4-20.3-7c-6.7-2.6-13.3-5.3-19.7-7.9c-7.2-2.8-14.3-5.6-21.3-8.4c-7.1-2.8-14.2-5.6-21.3-8.4
		c-3.5-1.5-7.1-2.9-10.6-4.3c-3.5-1.4-7.1-2.8-10.7-4.1c-0.8,0.9-1.7,1.8-2.5,2.7c-0.8,0.9-1.7,1.7-2.5,2.6
		c-2.1,2.1-4.2,4.1-6.5,6.1c-2.2,2-4.6,3.9-7.1,5.7c-2.5,1.8-5.1,3.3-7.7,4.7c-2.6,1.4-5.4,2.5-8.2,3.2c-2.2,0.5-4.5,0.7-6.9,0.6
		c-2.4-0.1-4.6-0.6-6.7-1.4c-2.1-0.8-4-2-5.7-3.5c-1.7-1.5-2.9-3.5-3.7-5.8c-0.8-2.5-0.9-4.9-0.2-7.2c0.7-2.3,1.8-4.4,3.3-6.2
		c1.5-1.9,3.3-3.5,5.4-5c2.1-1.5,4.2-2.6,6.2-3.4c5-2.1,10.1-3,15.4-2.6c5.3,0.3,10.5,1.1,15.6,2.3c3.5,0.9,7.2,2,10.9,3.3
		c5-5.8,9.7-11.9,14-18.1c4.4-6.3,8.6-12.5,12.6-18.8c7.5-11.3,14.8-22.7,21.9-34c7.1-11.4,14.4-22.7,21.9-34c3-4.7,6-9.3,9.1-13.9
		c3.1-4.6,6.3-9.2,9.6-13.8c-9.8,2.4-19.6,3.9-29.4,4.4c-9.9,0.6-19.8,0.2-29.7-1c-0.5-0.1-0.9-0.3-1.2-0.7
		c-0.3-0.4-0.5-0.8-0.5-1.2c0-0.5,0.2-0.9,0.5-1.2c0.3-0.3,0.7-0.5,1.2-0.5c6.3,0.9,12.8,1.4,19.3,1.4c14.6,0.2,29-1.7,43-5.6
		c3.9-5.6,8-11.1,12.1-16.3c4.1-5.3,8.4-10.5,12.8-15.7c2.1-2.5,4.2-5,6.4-7.4c2.2-2.4,4.4-4.9,6.7-7.2c2-2.1,4-4.1,6.1-6.2
		c2.1-2.1,4.5-3.6,7.2-4.7c2.3-0.8,4.3-1,6.1-0.4c1.8,0.6,3.3,1.6,4.5,3c1.2,1.4,2,3.1,2.6,5.1c0.5,2,0.7,4,0.5,6
		c-0.3,2.6-1,5.1-2.1,7.5c-1.1,2.4-2.4,4.6-4,6.7c-1.6,2.1-3.3,4-5.2,5.8c-1.9,1.8-3.9,3.5-5.8,5.1c-5,3.7-10.3,7-15.8,9.9
		c-5.6,2.9-11.2,5.4-17,7.6c-2.2,0.8-4.4,1.6-6.5,2.3c-2.2,0.7-4.4,1.4-6.5,2c-9.7,13.4-18.8,27-27.5,40.9
		c-8.7,13.9-17.5,27.7-26.4,41.5c-5.7,9-11.5,18.1-17.4,27.1S86.2,213.9,79,222c3.9,1.5,7.8,3,11.6,4.5c3.8,1.6,7.6,3.1,11.3,4.7
		c7.1,2.7,14,5.4,20.9,8.2c6.9,2.7,13.9,5.5,20.9,8.3c6.3,2.5,12.9,5.1,19.7,7.8c6.8,2.7,13.7,5,20.6,6.9c7,1.9,14,3.2,21,4
		c7.1,0.7,14.1,0.4,21.2-1.1c5.3-1,10.5-2.8,15.6-5.4c5.1-2.5,9.6-5.7,13.6-9.6c4-3.8,7.2-8.2,9.7-13.1
		C267.8,232.4,269,227,269,221.2z M50.4,242.5c4.4-2.5,8.4-5.3,12.1-8.6c3.7-3.2,7.3-6.6,10.7-10.3c-2.2-0.7-4.4-1.4-6.6-2
		c-2.2-0.6-4.5-1.1-6.8-1.6c-2.9-0.6-5.9-1-9.1-1.2c-3.2-0.2-6.3-0.1-9.3,0.5c-3.1,0.5-6,1.5-8.7,2.8c-2.8,1.3-5.2,3.3-7.2,5.8
		c-2.7,3.1-3.7,6.4-3,9.8s2.9,6,6.5,7.8c1.8,0.9,3.6,1.5,5.4,1.6c1.8,0.1,3.7,0,5.5-0.4c1.9-0.4,3.7-0.9,5.4-1.6
		C47.2,244.3,48.8,243.5,50.4,242.5z M207.8,40.3c-6.2,6.6-12.2,13.5-17.9,20.5c-5.7,7-11.3,14.2-16.7,21.6c5-1.6,9.8-3.3,14.4-5.4
		c4.6-2,9.2-4.2,13.6-6.6c2.7-1.5,5.4-3.1,8.2-4.8c2.7-1.8,5.3-3.7,7.8-5.8c2.4-2.1,4.6-4.4,6.6-6.9c2-2.5,3.5-5.2,4.7-8.3
		c0.4-1,0.8-2.3,1-3.8c0.3-1.5,0.3-3,0.2-4.4c-0.1-1.4-0.4-2.7-1-3.9c-0.6-1.2-1.5-2.1-2.9-2.7c-1.8-0.7-3.5-0.8-5.2-0.2
		c-1.7,0.6-3.3,1.5-4.9,2.7c-1.6,1.2-3,2.6-4.4,4.2C210,38,208.8,39.3,207.8,40.3z"/>
	<path class="st0" d="M256.1,157.8c0.6-0.1,1.1,0,1.5,0.2c0.4,0.3,0.6,0.6,0.7,1.1c0.1,0.5,0.1,0.9-0.1,1.4
		c-0.2,0.5-0.5,0.8-1.2,0.9c-6,1.7-12.3,2.7-18.8,2.8c-6.5,0.2-12.9,0.3-19.1,0.4c-4,0-8.1,0-12.2,0c-4.1,0-8.2-0.1-12.4-0.3
		c-0.4,1.2-0.9,2.5-1.4,3.7c-0.5,1.2-1,2.4-1.6,3.6c-0.4,0.8-0.9,1.8-1.6,2.9c-0.6,1.1-1.4,2.1-2.3,3c-0.9,0.9-1.8,1.5-2.8,1.9
		c-1,0.4-2.1,0.1-3.2-0.7c-1.1-0.7-1.9-1.8-2.3-3.1c-0.4-1.3-0.5-2.7-0.4-4.2c0.1-1.5,0.3-2.9,0.7-4.4c0.4-1.5,0.7-2.7,1-3.8
		c0.2-0.7,0.7-1.1,1.4-1.3c-0.5-0.2-1-0.5-1.4-0.7c-0.4-0.3-0.8-0.6-1.2-0.9c-2.2-1.7-3.4-3.8-3.6-6.4c-0.2-2.6,0.9-4.8,3.3-6.5
		c2.3-1.7,4.7-2.2,7.4-1.6c2.6,0.6,4.7,2,6.3,4.3c1.1,1.7,1.9,3.4,2.2,5.1c0.3,1.8,0.4,3.6,0.2,5.4h3c5,0.1,9.9,0.2,14.8,0.2
		c4.9,0.1,9.8,0,14.8-0.2c4.7-0.2,9.4-0.4,14.2-0.6C246.8,159.8,251.5,159.1,256.1,157.8z M179.6,152.5c-0.4,1.4-0.2,2.5,0.5,3.5
		c0.8,1,1.8,1.8,3,2.4c1.2,0.6,2.6,1.1,4,1.4c1.5,0.3,2.6,0.5,3.6,0.6h0.8c0.3-2,0.2-3.9-0.5-5.8c-0.4-1-1.1-2-2.2-3
		c-1-1-2.2-1.7-3.4-2.1c-1.2-0.4-2.4-0.4-3.5-0.1C180.9,149.9,180.1,150.9,179.6,152.5z M186.6,172.8c0.5-0.8,1-1.7,1.4-2.6
		c0.4-0.9,0.9-1.7,1.4-2.6c0.5-1.2,0.9-2.4,1.2-3.4c-2-0.1-4.2-0.5-6.5-1.2c0.3,0.3,0.4,0.7,0.2,1.2c-0.2,0.6-0.5,1.4-0.8,2.4
		c-0.3,1-0.6,2-0.8,3c-0.2,1-0.3,2.1-0.2,3c0.1,1,0.3,1.8,0.9,2.4c0.3,0.4,0.6,0.6,0.9,0.5c0.3,0,0.6-0.2,0.9-0.5
		c0.3-0.3,0.5-0.7,0.8-1.2C186.2,173.5,186.4,173.1,186.6,172.8z"/>
	<path class="st0" d="M383,158.2c0.5-0.3,1-0.4,1.4-0.2c0.4,0.2,0.8,0.5,1,0.9c0.3,0.4,0.4,0.8,0.3,1.2c-0.1,0.5-0.3,0.9-0.9,1.2
		c-4.5,2.5-9.3,4.4-14.5,5.8c-5.2,1.4-10.2,2.7-15.1,4c-6.5,1.9-13,3.7-19.5,5.4c-6.4,1.7-12.9,3.4-19.5,5.1c-2.5,0.6-5,1.2-7.6,1.9
		c-2.5,0.6-5.1,1.2-7.7,1.9c-1.5,0.2-3.1,0.6-4.9,1.1c-1.8,0.5-3.5,0.5-4.9,0c-2-0.6-3.2-1.7-3.7-3.3c-0.5-1.6-0.5-3.5-0.2-5.6
		c0.3-2.1,0.8-4.4,1.5-6.7c0.7-2.3,1.2-4.5,1.6-6.5c0.4-2,0.4-3.7,0.1-5.1c-0.4-1.4-1.4-2.3-3.2-2.6c-1.8-0.2-3.3-0.3-4.7-0.3
		c-1.4,0-2.7-0.9-4-2.6c-0.6-0.9-1.1-2.1-1.6-3.4c-1.9,2.2-3.9,4.2-6,6.1c-2.1,1.9-4.4,3.6-6.8,4.9c-0.5,0.3-1,0.4-1.5,0.2
		c-0.5-0.2-0.8-0.5-1-0.9c-0.2-0.4-0.3-0.8-0.2-1.2c0-0.5,0.3-0.9,0.9-1.2c3-1.7,5.8-3.8,8.3-6.5c2.5-2.6,4.9-5.4,7.1-8.2
		c0.7-1.8,1.9-3.3,3.6-4.7c0.8-0.5,1.6-0.4,2.3,0.3c0.7,0.7,0.7,1.5,0.2,2.3c-0.8,1.1-1.8,2.4-2.8,3.7c-0.5,1.6-0.6,3.2-0.2,4.8
		c0.4,1.7,1.4,2.6,3.2,3c0.4,0.2,0.9,0.2,1.6,0.1c0.6-0.2,1.2-0.2,1.7-0.1c3.8,0.2,6.1,2.1,6.7,5.6c0.3,1.6,0.4,3.1,0.2,4.7
		c-0.2,1.6-0.5,3.1-0.9,4.6c-0.4,1.5-0.9,3-1.3,4.5c-0.5,1.5-0.8,3-0.9,4.6c-0.2,1.5-0.2,2.8,0.2,4.1c0.3,1.3,1.3,1.8,3.1,1.6
		c0.7-0.1,1.4-0.2,2.1-0.3c0.7-0.1,1.3-0.3,1.9-0.5c4.9-1,9.7-2.2,14.4-3.3c4.7-1.2,9.5-2.4,14.2-3.7c5.8-1.5,11.6-3,17.3-4.5
		c5.7-1.6,11.4-3.2,17.1-5c3.5-1.1,7.2-2.2,11-3.2C376.2,161.3,379.7,159.9,383,158.2z"/>
	<path class="st0" d="M477.9,157.8c0.4-0.4,0.9-0.6,1.4-0.5c0.5,0.1,1,0.3,1.3,0.6c0.4,0.3,0.5,0.7,0.5,1.2c0,0.5-0.2,0.9-0.6,1.2
		c-2.4,2.1-5,3.7-7.9,5c-2.9,1.2-5.8,2.4-8.7,3.6c-8,3.2-16.5,5.8-25.4,7.6c-3.1,0.7-6.3,1.4-9.7,1.9c-3.3,0.6-6.6,0.8-10,0.5
		c-1.9-0.2-3.7-0.6-5.4-1.1c-1.8-0.5-3.1-1.7-3.9-3.6c-0.8-2-1.2-4.1-1.1-6.3c0.1-2.2,0.3-4.4,0.5-6.5c0.2-1.8,0.5-3.5,0.9-5.2
		c0.4-1.7,0.8-3.4,1.3-5.2c-0.1,0.2-0.2,0.4-0.3,0.5c-0.1,0.2-0.2,0.3-0.3,0.5c-2.5,4.3-5.2,8.6-8.2,13.1c-3,4.5-6.5,8.2-10.5,11.2
		c-0.9,0.7-2.1,1.3-3.3,1.7c-1.3,0.4-2.5,0.5-3.7,0.3c-1.1-0.2-2.1-0.7-2.8-1.6c-0.7-0.8-1-2.1-0.8-3.9c0.3-2.7,1.1-5.2,2.5-7.6
		c1.3-2.3,3-4.3,5.1-5.8c2-1.6,4.3-2.6,6.8-3.2c2.5-0.6,5-0.4,7.6,0.4c2.4-3.5,4.6-7.1,6.6-10.7c2-3.6,4-7.3,6-10.9
		c0.2-0.3,0.5-0.9,0.9-1.7c2-5.6,4.1-11.1,6.3-16.6c2.2-5.4,4.5-10.9,6.9-16.3l7.5-16.8c0.6-1.5,1.3-3,2-4.5
		c0.7-1.6,1.3-3.1,1.7-4.7c0.1-0.6,0.4-1,0.9-1.2c0.5-0.2,0.9-0.2,1.4-0.1c0.5,0.1,0.8,0.3,1.1,0.7c0.3,0.4,0.3,0.9,0.2,1.5
		c-1.8,6.6-3.9,13.2-6.5,19.5c-2.5,6.4-5.3,12.7-8.2,18.9c-1.6,3.5-3.2,7-4.8,10.5c-1.7,3.5-3.4,6.9-5.1,10.2c-0.4,1-0.8,2.1-1.1,3
		c-0.3,1-0.7,2.1-1.1,3.2c-1,3-2,6.1-2.9,9.2c-0.9,3.1-1.6,6.2-2.1,9.3c-0.3,2-0.6,4.2-0.9,6.5c-0.3,2.4-0.1,4.5,0.8,6.4
		c0.3,0.9,0.9,1.6,1.7,2c0.8,0.4,1.7,0.7,2.6,0.8c0.9,0.1,1.9,0.1,2.9,0.1c1-0.1,1.9-0.1,2.7-0.1c3.3-0.2,6.6-0.6,10-1.2
		c3.3-0.6,6.6-1.3,9.8-2.2c7.2-1.8,14.1-3.9,20.9-6.5c2.5-1,5-2.1,7.6-3.2C473.5,161,475.9,159.6,477.9,157.8z M398.8,163.3
		c0.8-1,1.6-2.1,2.2-3.1c-3-0.6-5.7-0.2-8,1.2c-2.3,1.4-4.3,3.5-5.8,6.3c-0.2,0.4-0.5,1-0.9,1.8c-0.4,0.8-0.8,1.6-1,2.4
		c-0.3,0.8-0.4,1.6-0.3,2.3c0.1,0.7,0.4,1.1,1,1.2c1.1,0.2,2.4-0.2,3.7-1.1c1.3-0.9,2.6-2.1,3.8-3.5c1.2-1.4,2.3-2.8,3.3-4.2
		C397.6,165.1,398.3,164,398.8,163.3z"/>
	<path class="st0" d="M492.9,71.1V53.2h5.6v17.9c0,4.9-1.4,9.1-4,12.5c-2.7,3.5-6.3,5.9-10.7,7.2v-5.4
		C489.8,82.6,492.9,77.9,492.9,71.1z"/>
	<path class="st0" d="M605.3,158.9c0.6,0,1.1,0.2,1.3,0.6c0.3,0.4,0.4,0.9,0.4,1.3c0,0.5-0.1,0.9-0.4,1.2c-0.3,0.4-0.7,0.5-1.3,0.5
		c-7.5-0.2-14.8,0.8-22,2.9c-7.2,2.1-14.2,4.6-21.1,7.4c-5.4,2.2-10.7,4.5-15.9,7.1c-5.2,2.5-10.3,5.2-15.4,7.9
		c-0.7,3.9-1.9,7.7-3.5,11.3c-1.6,3.6-4.1,6.6-7.4,9c-1,0.8-2.3,1.7-3.8,2.5c-1.5,0.8-3.1,1.5-4.7,2c-1.7,0.5-3.3,0.8-4.9,0.8
		c-1.6,0-3.1-0.4-4.4-1.2c-2.1-1.4-3.2-3.2-3.4-5.7c-0.2-2.4,0.6-4.5,2.3-6.1c1.1-0.9,2.4-1.8,3.9-2.5c1.5-0.7,2.8-1.5,4-2.2
		c1.6-0.8,3.1-1.7,4.7-2.6c1.6-0.9,3.2-1.8,4.7-2.6c1.6-0.8,3.1-1.7,4.7-2.5c1.6-0.8,3.1-1.7,4.7-2.5c0.6-4.3,1-8.5,1.2-12.8
		c0.2-4.3,0.6-8.2,1.5-11.8c0.6-2.8,1.5-5.6,2.7-8.3c1.2-2.7,2.7-5.3,4.4-7.6c1.8-2.3,3.9-4.3,6.3-5.9c2.4-1.6,5.2-2.6,8.3-3
		c0.5-0.1,1,0,1.4,0.4c0.4,0.4,0.7,0.8,0.8,1.2c0.1,0.4,0.1,0.8-0.1,1.2c-0.2,0.4-0.5,0.7-1.2,0.8c-5,0.7-8.8,2.6-11.5,5.8
		c-2.7,3.1-4.7,6.8-6.1,11.1c-1.3,4.3-2.2,8.9-2.6,13.7c-0.4,4.8-0.9,9.3-1.4,13.3c5.1-2.7,10.2-5.3,15.3-7.7
		c5.1-2.4,10.4-4.7,15.6-6.8c6.9-2.7,13.8-5.1,20.9-7.2C590.5,159.7,597.8,158.7,605.3,158.9z M516.5,206.1c3-1.9,5.3-4.2,6.8-7
		c1.5-2.8,2.7-5.9,3.5-9.2l-4.2,2.3c-2.7,1.5-5.4,3-8.1,4.5c-2.7,1.6-5.4,3.1-8.1,4.5c-0.9,0.5-1.8,1.1-2.7,1.7
		c-0.9,0.6-1.4,1.5-1.5,2.6c-0.1,1.2,0.3,2.2,1.1,2.9c0.8,0.7,1.8,1.1,3,1.2c1.8,0.1,3.6-0.2,5.4-1
		C513.5,207.9,515.1,207,516.5,206.1z"/>
	<path class="st0" d="M882.6,21.8c2.8,1.7,5,3.7,6.6,6.2c1.6,2.5,2.7,5.2,3.3,8.1c0.6,2.9,0.9,5.9,0.8,9c-0.1,3.1-0.4,6.1-0.9,9
		c-1.4,7.5-3.4,14.8-6.1,22c-2.8,7.2-5.7,14.2-9,21c-5.9,12.8-12.8,24.9-20.7,36.4c-7.9,11.5-16.7,22.4-26.5,32.5
		c-4.9,5.1-9.9,9.9-15,14.5c-5.1,4.6-10.5,9-16.1,13.2c-5.5,4.1-11.2,8.2-17.2,12.2c-6,4-12.2,7.3-18.8,9.9c-3,1.1-6.1,1.8-9.3,1.9
		s-6.1-0.8-8.8-2.9c-2.2-1.8-3.8-3.9-4.9-6.5c-1.1-2.6-1.8-5.2-2.1-7.9c-0.5-3.8-0.6-7.7-0.3-11.7c0.3-3.9,0.9-7.9,1.8-11.8
		c0.9-3.9,2-7.7,3.3-11.5c1.3-3.8,2.7-7.4,4.1-11c3.3-7.8,6.9-15.5,10.6-23c3.7-7.6,7.6-15.1,11.5-22.6c3-5.6,6-11.2,9-16.7
		c3-5.6,6.1-11.1,9.2-16.7c-8.2,9.4-15.9,19.1-23.2,29.1c-7.3,10-14.5,20-21.6,30.2c-7.4,10.6-14.8,21-22.3,31.2
		c-7.5,10.2-15.7,20.1-24.5,29.5c-2.1,2.2-4.2,4.4-6.4,6.8c-2.2,2.3-4.4,4.6-6.8,6.9c-2.3,2.2-4.8,4.3-7.3,6.2
		c-2.5,1.9-5.2,3.6-7.9,4.9c-0.7,0.4-1.7,0.9-2.8,1.3c-1.1,0.5-2.3,0.9-3.6,1.2c-1.2,0.3-2.4,0.4-3.6,0.4c-1.1-0.1-2.1-0.4-2.8-1
		c-0.9-0.8-1.7-1.9-2.2-3.2c-0.5-1.3-0.9-2.6-1.1-4c-0.2-1.4-0.3-2.8-0.3-4.2c0-1.4,0.1-2.7,0.2-3.8c0.3-3.1,0.9-6.2,1.9-9.3
		c0.9-3.1,2-6.1,3.3-9.1c1.3-3,2.7-6,4.1-8.9c1.5-2.9,2.9-5.8,4.2-8.6c3.1-6.5,6.4-13,9.7-19.4c3.4-6.4,6.9-12.7,10.5-19.1
		c7.1-12.2,14.5-24.2,22.4-35.7c7.9-11.6,16.2-22.9,25.1-34c0.5-0.7,1.2-0.8,2.1-0.1c0.9,0.7,1.1,1.4,0.5,2.3
		c-2.5,3.4-5,6.9-7.5,10.3c-2.5,3.4-5,6.9-7.5,10.4c-0.2,0.3-0.6,0.6-1.2,0.8c-12.5,17.2-23.9,35.2-34.4,53.9
		c-3.2,5.8-6.3,11.7-9.3,17.5c-3,5.9-6,11.8-8.9,17.8c-1.5,3.1-2.9,6.2-4.4,9.3c-1.5,3.1-2.8,6.3-4,9.5c-1.1,3-2.1,6.1-2.9,9.4
		s-0.9,6.5-0.2,9.7c0.1,0.7,0.3,1.6,0.5,2.6c0.3,1,0.6,1.8,1.2,2.3c0.6,0.5,1.2,0.8,1.7,0.8c0.5,0,1.2-0.1,2.2-0.3
		c1.5-0.3,2.9-0.8,4.3-1.4c1.4-0.6,2.7-1.3,4-2.2c2.7-1.8,5.2-3.7,7.6-5.9c2.4-2.2,4.8-4.4,7.2-6.5c4.4-4.3,8.5-8.6,12.5-12.9
		c3.9-4.4,7.8-8.9,11.7-13.5c7.6-9.3,14.8-18.9,21.7-28.8c6.9-9.9,13.8-19.7,20.8-29.6c7-9.9,14.1-19.6,21.5-29.1
		c7.4-9.5,15.3-18.6,23.7-27.2c0.7-0.7,1.5-0.8,2.3-0.2c0.8,0.6,1,1.4,0.5,2.2c-4.6,7.9-9,15.8-13.3,23.6
		c-4.3,7.8-8.6,15.8-12.8,23.9c-4,7.8-8.1,15.6-12.1,23.5c-4,7.9-7.6,16-10.8,24.3c-1.2,3.3-2.4,6.7-3.6,10.3
		c-1.1,3.5-2.1,7.1-2.9,10.8c-0.8,3.7-1.2,7.4-1.4,11.1c-0.2,3.7,0.1,7.3,0.9,10.8c0.8,4.2,2.6,7.4,5.4,9.7c2.8,2.3,6.4,3,10.7,1.9
		c3.3-0.8,6.5-2.1,9.6-3.8c3.1-1.7,6-3.5,9-5.2c11-6.6,21.4-14,31.1-22.2c9.8-8.1,18.8-17.1,27.2-26.9c8.5-9.8,16.2-20,23.2-30.7
		c7-10.7,13.1-22.1,18.4-34c2.5-5.7,4.8-11.5,7-17.4c2.2-5.9,3.9-12,5.3-18.2c0.5-2.6,0.9-5.4,1.2-8.3c0.3-3,0.2-5.8-0.3-8.6
		c-0.5-2.8-1.4-5.4-2.7-7.8c-1.4-2.4-3.3-4.4-5.9-5.9c-0.5-0.3-0.8-0.7-0.9-1.1s0.1-0.8,0.3-1.2c0.3-0.4,0.6-0.6,0.9-0.9
		C881.6,21.4,882.1,21.5,882.6,21.8z"/>
	<path class="st0" d="M951.9,157.8c0.6-0.1,1.1,0,1.5,0.2c0.4,0.3,0.6,0.6,0.7,1.1c0.1,0.5,0.1,0.9-0.1,1.4
		c-0.2,0.5-0.5,0.8-1.2,0.9c-6,1.7-12.3,2.7-18.8,2.8c-6.5,0.2-12.9,0.3-19.1,0.4c-4,0-8.1,0-12.2,0c-4.1,0-8.2-0.1-12.4-0.3
		c-0.4,1.2-0.9,2.5-1.4,3.7c-0.5,1.2-1,2.4-1.6,3.6c-0.4,0.8-0.9,1.8-1.6,2.9c-0.6,1.1-1.4,2.1-2.3,3c-0.9,0.9-1.8,1.5-2.8,1.9
		c-1,0.4-2.1,0.1-3.2-0.7c-1.1-0.7-1.9-1.8-2.3-3.1c-0.4-1.3-0.5-2.7-0.4-4.2c0.1-1.5,0.3-2.9,0.7-4.4c0.4-1.5,0.7-2.7,1-3.8
		c0.2-0.7,0.7-1.1,1.4-1.3c-0.5-0.2-1-0.5-1.4-0.7c-0.4-0.3-0.8-0.6-1.2-0.9c-2.2-1.7-3.4-3.8-3.6-6.4c-0.2-2.6,0.9-4.8,3.3-6.5
		c2.3-1.7,4.7-2.2,7.4-1.6c2.6,0.6,4.7,2,6.3,4.3c1.1,1.7,1.9,3.4,2.2,5.1c0.3,1.8,0.4,3.6,0.2,5.4h3c5,0.1,9.9,0.2,14.8,0.2
		c4.9,0.1,9.8,0,14.8-0.2c4.7-0.2,9.4-0.4,14.2-0.6C942.6,159.8,947.3,159.1,951.9,157.8z M875.4,152.5c-0.4,1.4-0.2,2.5,0.5,3.5
		c0.8,1,1.8,1.8,3,2.4c1.2,0.6,2.6,1.1,4,1.4c1.5,0.3,2.6,0.5,3.6,0.6h0.8c0.3-2,0.2-3.9-0.5-5.8c-0.4-1-1.1-2-2.2-3
		c-1-1-2.2-1.7-3.4-2.1c-1.2-0.4-2.4-0.4-3.5-0.1C876.7,149.9,875.9,150.9,875.4,152.5z M882.4,172.8c0.5-0.8,1-1.7,1.4-2.6
		c0.4-0.9,0.9-1.7,1.4-2.6c0.5-1.2,0.9-2.4,1.2-3.4c-2-0.1-4.2-0.5-6.5-1.2c0.3,0.3,0.4,0.7,0.2,1.2c-0.2,0.6-0.5,1.4-0.8,2.4
		c-0.3,1-0.6,2-0.8,3c-0.2,1-0.3,2.1-0.2,3c0.1,1,0.3,1.8,0.9,2.4c0.3,0.4,0.6,0.6,0.9,0.5c0.3,0,0.6-0.2,0.9-0.5
		c0.3-0.3,0.5-0.7,0.8-1.2C882,173.5,882.2,173.1,882.4,172.8z"/>
	<path class="st0" d="M1078.8,158.2c0.5-0.3,1-0.4,1.4-0.2c0.4,0.2,0.8,0.5,1,0.9c0.3,0.4,0.4,0.8,0.3,1.2c-0.1,0.5-0.3,0.9-0.9,1.2
		c-4.5,2.5-9.3,4.4-14.5,5.8c-5.2,1.4-10.2,2.7-15.1,4c-6.5,1.9-13,3.7-19.5,5.4c-6.4,1.7-12.9,3.4-19.5,5.1c-2.5,0.6-5,1.2-7.6,1.9
		c-2.5,0.6-5.1,1.2-7.7,1.9c-1.5,0.2-3.1,0.6-4.9,1.1c-1.8,0.5-3.5,0.5-4.9,0c-2-0.6-3.2-1.7-3.7-3.3c-0.5-1.6-0.5-3.5-0.2-5.6
		c0.3-2.1,0.8-4.4,1.5-6.7c0.7-2.3,1.2-4.5,1.6-6.5c0.4-2,0.4-3.7,0.1-5.1c-0.4-1.4-1.4-2.3-3.2-2.6c-1.8-0.2-3.3-0.3-4.7-0.3
		c-1.4,0-2.7-0.9-4-2.6c-0.6-0.9-1.1-2.1-1.6-3.4c-1.9,2.2-3.9,4.2-6,6.1c-2.1,1.9-4.4,3.6-6.8,4.9c-0.5,0.3-1,0.4-1.5,0.2
		c-0.5-0.2-0.8-0.5-1-0.9c-0.2-0.4-0.3-0.8-0.2-1.2c0-0.5,0.3-0.9,0.9-1.2c3-1.7,5.8-3.8,8.3-6.5c2.5-2.6,4.9-5.4,7.1-8.2
		c0.7-1.8,1.9-3.3,3.6-4.7c0.8-0.5,1.6-0.4,2.3,0.3c0.7,0.7,0.7,1.5,0.2,2.3c-0.8,1.1-1.8,2.4-2.8,3.7c-0.5,1.6-0.6,3.2-0.2,4.8
		c0.4,1.7,1.4,2.6,3.2,3c0.4,0.2,0.9,0.2,1.6,0.1c0.6-0.2,1.2-0.2,1.7-0.1c3.8,0.2,6.1,2.1,6.7,5.6c0.3,1.6,0.4,3.1,0.2,4.7
		c-0.2,1.6-0.5,3.1-0.9,4.6c-0.4,1.5-0.9,3-1.3,4.5c-0.5,1.5-0.8,3-0.9,4.6c-0.2,1.5-0.2,2.8,0.2,4.1c0.3,1.3,1.3,1.8,3.1,1.6
		c0.7-0.1,1.4-0.2,2.1-0.3c0.7-0.1,1.3-0.3,1.9-0.5c4.9-1,9.7-2.2,14.4-3.3c4.7-1.2,9.5-2.4,14.2-3.7c5.8-1.5,11.6-3,17.3-4.5
		c5.7-1.6,11.4-3.2,17.1-5c3.5-1.1,7.2-2.2,11-3.2C1072,161.3,1075.5,159.9,1078.8,158.2z"/>
	<path class="st0" d="M1173.7,157.8c0.4-0.4,0.9-0.6,1.4-0.5c0.5,0.1,1,0.3,1.3,0.6c0.4,0.3,0.5,0.7,0.5,1.2c0,0.5-0.2,0.9-0.6,1.2
		c-2.4,2.1-5,3.7-7.9,5c-2.9,1.2-5.8,2.4-8.7,3.6c-8,3.2-16.5,5.8-25.4,7.6c-3.1,0.7-6.3,1.4-9.7,1.9c-3.3,0.6-6.6,0.8-10,0.5
		c-1.9-0.2-3.7-0.6-5.4-1.1c-1.8-0.5-3.1-1.7-3.9-3.6c-0.8-2-1.2-4.1-1.1-6.3c0.1-2.2,0.3-4.4,0.5-6.5c0.2-1.8,0.5-3.5,0.9-5.2
		c0.4-1.7,0.8-3.4,1.3-5.2c-0.1,0.2-0.2,0.4-0.3,0.5c-0.1,0.2-0.2,0.3-0.3,0.5c-2.5,4.3-5.2,8.6-8.2,13.1c-3,4.5-6.5,8.2-10.5,11.2
		c-0.9,0.7-2.1,1.3-3.3,1.7c-1.3,0.4-2.5,0.5-3.7,0.3c-1.1-0.2-2.1-0.7-2.8-1.6c-0.7-0.8-1-2.1-0.8-3.9c0.3-2.7,1.1-5.2,2.5-7.6
		c1.3-2.3,3-4.3,5.1-5.8c2-1.6,4.3-2.6,6.8-3.2c2.5-0.6,5-0.4,7.6,0.4c2.4-3.5,4.6-7.1,6.6-10.7c2-3.6,4-7.3,6-10.9
		c0.2-0.3,0.5-0.9,0.9-1.7c2-5.6,4.1-11.1,6.3-16.6c2.2-5.4,4.5-10.9,6.9-16.3l7.5-16.8c0.6-1.5,1.3-3,2-4.5
		c0.7-1.6,1.3-3.1,1.7-4.7c0.1-0.6,0.4-1,0.9-1.2c0.5-0.2,0.9-0.2,1.4-0.1c0.5,0.1,0.8,0.3,1.1,0.7c0.3,0.4,0.3,0.9,0.2,1.5
		c-1.8,6.6-3.9,13.2-6.5,19.5c-2.5,6.4-5.3,12.7-8.2,18.9c-1.6,3.5-3.2,7-4.8,10.5c-1.7,3.5-3.4,6.9-5.1,10.2c-0.4,1-0.8,2.1-1.1,3
		c-0.3,1-0.7,2.1-1.1,3.2c-1,3-2,6.1-2.9,9.2c-0.9,3.1-1.6,6.2-2.1,9.3c-0.3,2-0.6,4.2-0.9,6.5c-0.3,2.4-0.1,4.5,0.8,6.4
		c0.3,0.9,0.9,1.6,1.7,2c0.8,0.4,1.7,0.7,2.6,0.8c0.9,0.1,1.9,0.1,2.9,0.1c1-0.1,1.9-0.1,2.7-0.1c3.3-0.2,6.6-0.6,10-1.2
		c3.3-0.6,6.6-1.3,9.8-2.2c7.2-1.8,14.1-3.9,20.9-6.5c2.5-1,5-2.1,7.6-3.2C1169.3,161,1171.7,159.6,1173.7,157.8z M1094.6,163.3
		c0.8-1,1.6-2.1,2.2-3.1c-3-0.6-5.7-0.2-8,1.2c-2.3,1.4-4.3,3.5-5.8,6.3c-0.2,0.4-0.5,1-0.9,1.8c-0.4,0.8-0.8,1.6-1,2.4
		c-0.3,0.8-0.4,1.6-0.3,2.3c0.1,0.7,0.4,1.1,1,1.2c1.1,0.2,2.4-0.2,3.7-1.1c1.3-0.9,2.6-2.1,3.8-3.5c1.2-1.4,2.3-2.8,3.3-4.2
		C1093.4,165.1,1094.1,164,1094.6,163.3z"/>
</g>
<g>
	<path class="st0" d="M507.7,277.8v-1.4c0-14.5,11.1-21.3,21.3-21.3c8.2,0,14.3,3.5,17.7,8.7l-1.9,1c-3.2-4.6-8.3-7.9-15.8-7.9
		c-8.9,0-18.9,5.9-18.9,19.4v1.4c0,13.4,10,19.3,18.8,19.3c7.5,0,12.7-3.2,15.7-7.7l2,0.9c-3.4,5.1-9.4,8.7-17.6,8.7
		C518.7,299.1,507.7,292.3,507.7,277.8z"/>
	<path class="st0" d="M629.1,255.5v43.2h-2.4v-19.3h-27.4v19.3H597v-43.1l2.4-0.1v22h27.4v-22H629.1z"/>
	<path class="st0" d="M681.8,282.7l0.4-27l2.3-0.2l-0.3,27.2c-0.1,8.6,6.7,14.4,16.1,14.4c9.8,0,16.1-5.8,16.1-14.4v-27.1h2.4
		l0.1,27.1c0,9.7-7.4,16.4-18.6,16.4C689.5,299.1,681.7,292.4,681.8,282.7z"/>
	<path class="st0" d="M791.5,282.7l10,16h-2.9l-9.6-15.4c-1.1,0.2-2,0.2-3,0.2h-11.9v15.2h-2.5v-43.2c4.9-0.2,8.4-0.3,13.3-0.3
		c7,0,17.3,2.5,17.3,14.3C802.3,277,797.1,281.1,791.5,282.7z M799.7,269.2c0-8.9-6.7-12-14.8-12c-4,0.1-6.8,0.1-10.8,0.2v24.2h11.5
		C792.8,281.6,799.7,277.7,799.7,269.2z"/>
	<path class="st0" d="M849.2,277.8v-1.4c0-14.5,11.1-21.3,21.3-21.3c8.2,0,14.3,3.5,17.7,8.7l-1.9,1c-3.2-4.6-8.3-7.9-15.8-7.9
		c-8.9,0-18.9,5.9-18.9,19.4v1.4c0,13.4,10,19.3,18.8,19.3c7.5,0,12.7-3.2,15.7-7.7l2,0.9c-3.4,5.1-9.4,8.7-17.6,8.7
		C860.2,299.1,849.2,292.3,849.2,277.8z"/>
	<path class="st0" d="M970.6,255.5v43.2h-2.4v-19.3h-27.4v19.3h-2.4v-43.1l2.4-0.1v22h27.4v-22H970.6z"/>
</g>
</svg>
